<svg xmlns="http://www.w3.org/2000/svg" width="1508" height="436.969" viewBox="0 0 1508 436.969">
  <defs>
    <style>
      .cls-1 {
        fill: #c6f;
        stroke: #000;
        stroke-width: 1px;
        fill-rule: evenodd;
      }
    </style>
  </defs>
  <path id="KFC_1" data-name="KFC 1" class="cls-1" d="M1537.52,178.156c49.56-1.057,95.11,3.93,133.96,14.007,13.16,3.413,35,3.56,39.99,15.008,3.57,6.187.05,19.794-2,28.014q-9,40.016-17.99,80.04-2.505,2-5,4c-16.19.229-32.3-.068-44.99-3-5.35-8.132-3.46-17.027-7-29.015-4.61-15.619-18.59-29.1-32.99-35.018-28.15-11.573-73.07-7.375-97.97,3-54.9,22.886-110.24,93.1-87.97,178.089,14.35,54.734,56.95,80.491,112.97,94.048,15.04,3.641,39.37,8.484,58.98,5l33.99-3c18.07-3.591,41.4-10.771,59.98-6,8.47,17.418-2.01,52.4-7,69.034-26.87,16.542-142.58,25.351-187.94,17.009-19.14-3.521-35.65-2.51-52.98-7-70.56-18.291-124.19-46.1-157.96-101.051-16.97-27.629-33.08-72.123-22.99-120.06q6.5-24.51,13-49.024c31.12-78.458,92.48-120.623,179.94-143.072l59.98-9Zm-1189.627,3,146.955,1c22.263,3.908,49.454-2.646,68.978,2,1.751,2.771,2.339,2.531,3,7,1.6,3.909-.891,9.362-2,13.006-2.95,9.7-3.84,19.749-11,25.013-9.36,6.885-22.081,6.783-28.991,16.008-10.027,13.386-12.321,32.093-17.994,50.025-7.011,22.158-19.2,45.989-19.994,72.036h2l40.987-28.014,82.974-61.03c12.328-8.737,41.306-19.927,41.987-39.02l-16-15.008c-0.257-12.828,5.343-32.394,13-38.019,10.175-6.387,39.526-2,53.983-2l76.976,2c23.547,4.146,51.1-1.829,70.978,3l3,4c0.581,15.2-3.5,34.74-14,39.019-6.143,4.472-15.044,2.772-23.992,5-14.068,3.508-28.492,9.111-39.988,16.008l-109.965,80.04c-10.416,7.382-50.006,29.413-51.984,41.021l92.971,125.062c13,17.857,25.428,40.965,43.986,53.027,10.446,6.789,27.266,6.116,39.988,11.006l4,5c0.5,16.463-5.339,38.339-16.994,43.022-9.413,5.841-64.215.085-79.975,0-112.766-.613-141.58-35.787-183.943-106.054l-31.99-58.029c-5.171-8.725-7.42-21.84-17-26.013-5.109,35.178-35.371,79.818-30.99,117.059,10.085,8.146,27.251,14.512,26.991,33.017-6.724,11.192-4.365,29.785-16.994,35.017-8.923,5.559-49.533,2-63.981,2l-111.965-1-58.981-1-5-7c-3.1-6.368,2.327-14.889,4-20.01,11.493-35.2,40.87-21.519,58.982-51.026,9.772-15.922,13.743-34.807,20.993-53.027,18.4-46.24,29.842-96.894,46.985-145.072,4.409-12.39,24.223-62.109,20.994-76.039-3.8-16.4-19.842-20.939-29.991-31.015-0.167-12.99,6.591-36.168,16-40.02Zm545.831,2,293.906,3,68.98,1c11.94,0.019,24.82-2.012,28.99,6,4.11,6.29.09,20.142-2,28.014-4.57,17.222-13.46,78.73-23.99,87.044-9.49,6.162-38.49,2.93-49.98,0-8.61-13.752-3.91-37.678-17-47.024-16.79-11.984-92.48-6.288-121.96-6-10.24,15.563-26.19,83.823-27.99,107.054l3,1,107.96,2c14.35,0,34.24-2.912,38.99,7,5.02,9.5-12.57,68.64-17.99,71.035-6.93,4.812-27.31,2-37.99,2H1025.68c-10.98,3.875-11.83,35.81-14.99,48.024-2.63,10.172-10.11,23.937-7,38.02,4.86,22.027,29.78,17.218,29.99,43.021-5.85,10.316-3.32,30.722-14,36.018l-52.979,1-135.958-2-5-6c-0.415-29.264,12.8-62.648,19.994-88.045l41.986-166.083q8-31.512,16-63.031c2.444-8.62,8.164-22.455,4-34.018-4.726-13.12-21.905-17.877-30.99-27.013C876.606,206.32,882.6,191.222,893.724,183.159Z" transform="translate(-205.5 -177.531)"/>
</svg>
